<svg xmlns="http://www.w3.org/2000/svg" viewBox="0 0 1100 820" width="1100" height="820" font-family="'Segoe UI', Arial, sans-serif">
  <defs>
    <linearGradient id="factGrad" x1="0%" y1="0%" x2="0%" y2="100%">
      <stop offset="0%" style="stop-color:#1a3a6b;stop-opacity:1"/>
      <stop offset="100%" style="stop-color:#0f2548;stop-opacity:1"/>
    </linearGradient>
    <linearGradient id="dimGrad" x1="0%" y1="0%" x2="0%" y2="100%">
      <stop offset="0%" style="stop-color:#0e6655;stop-opacity:1"/>
      <stop offset="100%" style="stop-color:#0a4d3f;stop-opacity:1"/>
    </linearGradient>
    <filter id="shadow" x="-5%" y="-5%" width="115%" height="115%">
      <feDropShadow dx="3" dy="3" stdDeviation="4" flood-opacity="0.25"/>
    </filter>
    <marker id="arrowBlue" markerWidth="10" markerHeight="7" refX="10" refY="3.5" orient="auto">
      <polygon points="0 0, 10 3.5, 0 7" fill="#3d7ebf"/>
    </marker>
    <marker id="arrowGray" markerWidth="10" markerHeight="7" refX="10" refY="3.5" orient="auto">
      <polygon points="0 0, 10 3.5, 0 7" fill="#7fb3d3"/>
    </marker>
  </defs>

  <!-- Background -->
  <rect width="1100" height="820" fill="#f0f4f8" rx="16"/>

  <!-- Title Banner -->
  <rect x="0" y="0" width="1100" height="60" fill="#1a3a6b" rx="16"/>
  <rect x="0" y="44" width="1100" height="16" fill="#1a3a6b"/>
  <text x="550" y="38" text-anchor="middle" font-size="22" font-weight="700" fill="white" letter-spacing="1">Financial Performance Dashboard — Star Schema Model</text>

  <!-- Legend -->
  <rect x="30" y="76" width="18" height="18" fill="#1a3a6b" rx="4"/>
  <text x="54" y="90" font-size="13" fill="#333">Fact Table</text>
  <rect x="145" y="76" width="18" height="18" fill="#0e6655" rx="4"/>
  <text x="169" y="90" font-size="13" fill="#333">Dimension Tables</text>
  <line x1="290" y1="85" x2="330" y2="85" stroke="#3d7ebf" stroke-width="2" marker-end="url(#arrowBlue)"/>
  <text x="340" y="90" font-size="13" fill="#333">Relationship (FK → PK)</text>

  <!-- ========== FACT TABLE (center) ========== -->
  <rect x="370" y="280" width="360" height="300" fill="url(#factGrad)" rx="12" filter="url(#shadow)"/>
  <rect x="370" y="280" width="360" height="42" fill="#2255a0" rx="12"/>
  <rect x="370" y="310" width="360" height="12" fill="#2255a0"/>
  <text x="550" y="308" text-anchor="middle" font-size="15" font-weight="700" fill="#f0e68c" letter-spacing="0.5">⭐  fact_transactions</text>
  <!-- PK/FK fields -->
  <text x="390" y="342" font-size="12" font-weight="700" fill="#90caf9">🔑 TransactionID</text>
  <text x="570" y="342" font-size="11" fill="#b0bec5">PK · Surrogate Key</text>
  <line x1="385" y1="348" x2="715" y2="348" stroke="#2a5298" stroke-width="0.7"/>
  <text x="390" y="366" font-size="12" fill="#80deea">🔗 DateKey</text>
  <text x="570" y="366" font-size="11" fill="#b0bec5">FK → dim_date</text>
  <line x1="385" y1="372" x2="715" y2="372" stroke="#2a5298" stroke-width="0.7"/>
  <text x="390" y="390" font-size="12" fill="#80deea">🔗 AccountKey</text>
  <text x="570" y="390" font-size="11" fill="#b0bec5">FK → dim_accounts</text>
  <line x1="385" y1="396" x2="715" y2="396" stroke="#2a5298" stroke-width="0.7"/>
  <text x="390" y="414" font-size="12" fill="#80deea">🔗 DepartmentKey</text>
  <text x="570" y="414" font-size="11" fill="#b0bec5">FK → dim_departments</text>
  <line x1="385" y1="420" x2="715" y2="420" stroke="#2a5298" stroke-width="0.7"/>
  <text x="390" y="438" font-size="12" fill="#80deea">🔗 CostCenterKey</text>
  <text x="570" y="438" font-size="11" fill="#b0bec5">FK → dim_cost_centers</text>
  <line x1="385" y1="444" x2="715" y2="444" stroke="#2a5298" stroke-width="0.7"/>
  <text x="390" y="462" font-size="12" fill="#80deea">🔗 EntityKey</text>
  <text x="570" y="462" font-size="11" fill="#b0bec5">FK → dim_entities</text>
  <line x1="385" y1="468" x2="715" y2="468" stroke="#2a5298" stroke-width="0.7"/>
  <!-- Measures -->
  <text x="390" y="487" font-size="11.5" fill="#f8bbd0">📊 TransactionType</text>
  <text x="390" y="504" font-size="11.5" fill="#f8bbd0">📊 Amount (Actual)</text>
  <text x="390" y="521" font-size="11.5" fill="#f8bbd0">📊 BudgetAmount</text>
  <text x="390" y="538" font-size="11.5" fill="#f8bbd0">📊 FiscalYear / FiscalQuarter</text>
  <text x="540" y="487" font-size="11" fill="#b0bec5">Revenue | Expense</text>
  <text x="540" y="504" font-size="11" fill="#b0bec5">DECIMAL(18,2)</text>
  <text x="540" y="521" font-size="11" fill="#b0bec5">DECIMAL(18,2)</text>
  <text x="540" y="538" font-size="11" fill="#b0bec5">VARCHAR | VARCHAR</text>
  <!-- Row Count Badge -->
  <rect x="660" y="558" width="60" height="20" fill="#2255a0" rx="10"/>
  <text x="690" y="572" text-anchor="middle" font-size="11" fill="#f0e68c">100 rows</text>

  <!-- ========== DIM DATE (top center) ========== -->
  <rect x="390" y="88" width="320" height="170" fill="url(#dimGrad)" rx="12" filter="url(#shadow)"/>
  <rect x="390" y="88" width="320" height="38" fill="#1a7a5e" rx="12"/>
  <rect x="390" y="114" width="320" height="12" fill="#1a7a5e"/>
  <text x="550" y="113" text-anchor="middle" font-size="14" font-weight="700" fill="#f0e68c">📅  dim_date</text>
  <text x="408" y="136" font-size="12" font-weight="700" fill="#a5d6a7">🔑 DateKey</text>
  <text x="540" y="136" font-size="11" fill="#b2dfdb">PK · YYYYMMDD Integer</text>
  <line x1="403" y1="142" x2="700" y2="142" stroke="#145a44" stroke-width="0.7"/>
  <text x="408" y="158" font-size="11.5" fill="#e0f2f1">FullDate, Year, Quarter</text>
  <text x="408" y="174" font-size="11.5" fill="#e0f2f1">Month, MonthName, WeekOfYear</text>
  <text x="408" y="190" font-size="11.5" fill="#e0f2f1">DayOfWeek, IsWeekend, IsHoliday</text>
  <text x="408" y="206" font-size="11.5" fill="#e0f2f1">FiscalYear, FiscalQuarter, FiscalMonth</text>
  <text x="408" y="222" font-size="11.5" fill="#e0f2f1">YearMonth, YearQuarter</text>
  <rect x="673" y="244" width="60" height="20" fill="#1a7a5e" rx="10"/>
  <text x="703" y="258" text-anchor="middle" font-size="11" fill="#f0e68c">87 rows</text>

  <!-- ========== DIM ACCOUNTS (right top) ========== -->
  <rect x="780" y="120" width="285" height="210" fill="url(#dimGrad)" rx="12" filter="url(#shadow)"/>
  <rect x="780" y="120" width="285" height="38" fill="#1a7a5e" rx="12"/>
  <rect x="780" y="146" width="285" height="12" fill="#1a7a5e"/>
  <text x="922" y="145" text-anchor="middle" font-size="14" font-weight="700" fill="#f0e68c">💼  dim_accounts</text>
  <text x="798" y="168" font-size="12" font-weight="700" fill="#a5d6a7">🔑 AccountKey</text>
  <text x="910" y="168" font-size="11" fill="#b2dfdb">PK · Natural Key</text>
  <line x1="793" y1="174" x2="1055" y2="174" stroke="#145a44" stroke-width="0.7"/>
  <text x="798" y="192" font-size="11.5" fill="#e0f2f1">AccountCode, AccountName</text>
  <text x="798" y="208" font-size="11.5" fill="#e0f2f1">AccountCategory (Revenue/Expense)</text>
  <text x="798" y="224" font-size="11.5" fill="#e0f2f1">AccountSubCategory</text>
  <text x="798" y="240" font-size="11.5" fill="#e0f2f1">AccountType (Income/OpEx/Non-Cash)</text>
  <text x="798" y="256" font-size="11.5" fill="#e0f2f1">IsActive, ParentAccount</text>
  <rect x="1028" y="308" width="50" height="20" fill="#1a7a5e" rx="10"/>
  <text x="1053" y="322" text-anchor="middle" font-size="11" fill="#f0e68c">13 rows</text>

  <!-- ========== DIM DEPARTMENTS (right bottom) ========== -->
  <rect x="790" y="450" width="280" height="220" fill="url(#dimGrad)" rx="12" filter="url(#shadow)"/>
  <rect x="790" y="450" width="280" height="38" fill="#1a7a5e" rx="12"/>
  <rect x="790" y="476" width="280" height="12" fill="#1a7a5e"/>
  <text x="930" y="475" text-anchor="middle" font-size="14" font-weight="700" fill="#f0e68c">🏢  dim_departments</text>
  <text x="808" y="498" font-size="12" font-weight="700" fill="#a5d6a7">🔑 DepartmentKey</text>
  <text x="940" y="498" font-size="11" fill="#b2dfdb">PK · Natural Key</text>
  <line x1="803" y1="504" x2="1060" y2="504" stroke="#145a44" stroke-width="0.7"/>
  <text x="808" y="522" font-size="11.5" fill="#e0f2f1">DepartmentCode, DepartmentName</text>
  <text x="808" y="538" font-size="11.5" fill="#e0f2f1">DivisionName, DivisionCode</text>
  <text x="808" y="554" font-size="11.5" fill="#e0f2f1">RegionName, RegionCode</text>
  <text x="808" y="570" font-size="11.5" fill="#e0f2f1">DepartmentHead</text>
  <text x="808" y="586" font-size="11.5" fill="#e0f2f1">CostType, IsRevenue</text>
  <rect x="1032" y="650" width="50" height="20" fill="#1a7a5e" rx="10"/>
  <text x="1057" y="664" text-anchor="middle" font-size="11" fill="#f0e68c">6 rows</text>

  <!-- ========== DIM COST CENTERS (bottom left) ========== -->
  <rect x="30" y="490" width="295" height="210" fill="url(#dimGrad)" rx="12" filter="url(#shadow)"/>
  <rect x="30" y="490" width="295" height="38" fill="#1a7a5e" rx="12"/>
  <rect x="30" y="516" width="295" height="12" fill="#1a7a5e"/>
  <text x="177" y="515" text-anchor="middle" font-size="14" font-weight="700" fill="#f0e68c">💰  dim_cost_centers</text>
  <text x="48" y="538" font-size="12" font-weight="700" fill="#a5d6a7">🔑 CostCenterKey</text>
  <text x="185" y="538" font-size="11" fill="#b2dfdb">PK · Natural Key</text>
  <line x1="43" y1="544" x2="315" y2="544" stroke="#145a44" stroke-width="0.7"/>
  <text x="48" y="562" font-size="11.5" fill="#e0f2f1">CostCenterCode, CostCenterName</text>
  <text x="48" y="578" font-size="11.5" fill="#e0f2f1">DepartmentKey (Bridge FK)</text>
  <text x="48" y="594" font-size="11.5" fill="#e0f2f1">BudgetOwner</text>
  <text x="48" y="610" font-size="11.5" fill="#e0f2f1">AnnualBudget, CostType</text>
  <text x="48" y="626" font-size="11.5" fill="#e0f2f1">IsActive</text>
  <rect x="263" y="680" width="50" height="20" fill="#1a7a5e" rx="10"/>
  <text x="288" y="694" text-anchor="middle" font-size="11" fill="#f0e68c">10 rows</text>

  <!-- ========== DIM ENTITIES (left top) ========== -->
  <rect x="20" y="200" width="295" height="200" fill="url(#dimGrad)" rx="12" filter="url(#shadow)"/>
  <rect x="20" y="200" width="295" height="38" fill="#1a7a5e" rx="12"/>
  <rect x="20" y="226" width="295" height="12" fill="#1a7a5e"/>
  <text x="167" y="225" text-anchor="middle" font-size="14" font-weight="700" fill="#f0e68c">🌐  dim_entities</text>
  <text x="38" y="248" font-size="12" font-weight="700" fill="#a5d6a7">🔑 EntityKey</text>
  <text x="155" y="248" font-size="11" fill="#b2dfdb">PK · Natural Key</text>
  <line x1="33" y1="254" x2="305" y2="254" stroke="#145a44" stroke-width="0.7"/>
  <text x="38" y="272" font-size="11.5" fill="#e0f2f1">EntityCode, EntityName</text>
  <text x="38" y="288" font-size="11.5" fill="#e0f2f1">EntityType (Parent/Subsidiary)</text>
  <text x="38" y="304" font-size="11.5" fill="#e0f2f1">RegionName, RegionCode</text>
  <text x="38" y="320" font-size="11.5" fill="#e0f2f1">Country, Currency</text>
  <text x="38" y="336" font-size="11.5" fill="#e0f2f1">IsConsolidated, ParentEntity</text>
  <rect x="258" y="378" width="50" height="20" fill="#1a7a5e" rx="10"/>
  <text x="283" y="392" text-anchor="middle" font-size="11" fill="#f0e68c">4 rows</text>

  <!-- ========== RELATIONSHIP LINES ========== -->
  <!-- Date → Fact (top, vertical) -->
  <line x1="550" y1="258" x2="550" y2="280" stroke="#3d7ebf" stroke-width="2.2" marker-end="url(#arrowBlue)" stroke-dasharray="6,3"/>

  <!-- Accounts → Fact (right-top diagonal) -->
  <line x1="780" y1="225" x2="730" y2="340" stroke="#3d7ebf" stroke-width="2.2" marker-end="url(#arrowBlue)" stroke-dasharray="6,3"/>

  <!-- Departments → Fact (right-bottom) -->
  <line x1="790" y1="500" x2="730" y2="445" stroke="#3d7ebf" stroke-width="2.2" marker-end="url(#arrowBlue)" stroke-dasharray="6,3"/>

  <!-- Cost Centers → Fact (bottom-left) -->
  <line x1="325" y1="530" x2="370" y2="490" stroke="#3d7ebf" stroke-width="2.2" marker-end="url(#arrowBlue)" stroke-dasharray="6,3"/>

  <!-- Entities → Fact (left) -->
  <line x1="315" y1="335" x2="370" y2="370" stroke="#3d7ebf" stroke-width="2.2" marker-end="url(#arrowBlue)" stroke-dasharray="6,3"/>

  <!-- Relationship cardinality labels -->
  <text x="534" y="268" font-size="11" fill="#3d7ebf" font-weight="700">1</text>
  <text x="534" y="286" font-size="11" fill="#3d7ebf" font-weight="700">*</text>

  <text x="762" y="224" font-size="11" fill="#3d7ebf" font-weight="700">1</text>
  <text x="742" y="308" font-size="11" fill="#3d7ebf" font-weight="700">*</text>

  <text x="793" y="497" font-size="11" fill="#3d7ebf" font-weight="700">1</text>
  <text x="737" y="462" font-size="11" fill="#3d7ebf" font-weight="700">*</text>

  <text x="330" y="524" font-size="11" fill="#3d7ebf" font-weight="700">1</text>
  <text x="354" y="486" font-size="11" fill="#3d7ebf" font-weight="700">*</text>

  <text x="317" y="332" font-size="11" fill="#3d7ebf" font-weight="700">1</text>
  <text x="354" y="362" font-size="11" fill="#3d7ebf" font-weight="700">*</text>

  <!-- Footer -->
  <rect x="0" y="780" width="1100" height="40" fill="#1a3a6b" rx="16"/>
  <rect x="0" y="780" width="1100" height="16" fill="#1a3a6b"/>
  <text x="550" y="806" text-anchor="middle" font-size="12" fill="#90caf9">Edwin Kato · Finance Power BI Portfolio · github.com/edwinkato · Star Schema v1.0 · FY2024</text>
</svg>
